<!-- eslint-disable -->
<svg xmlns="http://www.w3.org/2000/svg" xmlns:xlink="http://www.w3.org/1999/xlink" width="36" height="36" viewBox="0 0 36 36">
  <defs>
    <linearGradient id="linear-gradient" x1="0.5" y1="0.085" x2="0.5" y2="1" gradientUnits="objectBoundingBox">
      <stop offset="0" stop-color="#34c1ff"/>
      <stop offset="1" stop-color="#1176db"/>
    </linearGradient>
    <linearGradient id="linear-gradient-2" x1="0.5" x2="0.5" y2="1" gradientUnits="objectBoundingBox">
      <stop offset="0" stop-color="#dff3ff"/>
      <stop offset="1" stop-color="#c4edff"/>
    </linearGradient>
    <linearGradient id="linear-gradient-3" x1="0.5" x2="0.5" y2="1" gradientUnits="objectBoundingBox">
      <stop offset="0" stop-color="#f5fbff"/>
      <stop offset="1" stop-color="#c4edff"/>
    </linearGradient>
  </defs>
  <g id="组_1117" data-name="组 1117" transform="translate(-213 -473.333)">
    <g id="编组备份_6" data-name="编组备份 6" transform="translate(215 478.333)">
      <rect id="矩形" width="33" height="25" rx="4" fill="url(#linear-gradient)"/>
      <path id="形状结合" d="M.968,10.393A1.135,1.135,0,0,1,0,9.347,1.137,1.137,0,0,1,.968,8.3h9.4a1.137,1.137,0,0,1,.97,1.047,1.137,1.137,0,0,1-.97,1.047ZM.917,6.337A1.113,1.113,0,0,1,0,5.29,1.114,1.114,0,0,1,.917,4.244H6.929A1.115,1.115,0,0,1,7.848,5.29a1.115,1.115,0,0,1-.919,1.047Zm0-4.244A1.113,1.113,0,0,1,0,1.047,1.114,1.114,0,0,1,.917,0H6.929a1.115,1.115,0,0,1,.919,1.047,1.115,1.115,0,0,1-.919,1.046Z" transform="translate(18.524 8.28)" fill="url(#linear-gradient-2)"/>
      <path id="路径" d="M.583,13.65a.762.762,0,0,1-.568-.894A6.659,6.659,0,0,1,4.534,7.5,4.031,4.031,0,0,1,2.549,3.992,3.878,3.878,0,0,1,6.284,0,3.88,3.88,0,0,1,10.02,3.992,4.031,4.031,0,0,1,8.035,7.5a6.652,6.652,0,0,1,4.52,5.27.761.761,0,0,1-.569.891.639.639,0,0,1-.133.013" transform="translate(3.139 6.091)" fill="url(#linear-gradient-3)"/>
    </g>
    <rect id="矩形_573" data-name="矩形 573" width="36" height="36" transform="translate(213 473.333)" fill="none"/>
  </g>
</svg>
